<svg xmlns="http://www.w3.org/2000/svg" viewBox="0 0 361.78 56.45"><defs><style>.cls-1{fill:#00a15d;}</style></defs><g id="Ebene_2" data-name="Ebene 2"><g id="Ebene_1-2" data-name="Ebene 1"><path d="M80.44,19.64h6.31v3.28a10.26,10.26,0,0,1,7.65-3.83v6.16a8,8,0,0,0-1.74-.2c-2.09,0-4.87,1.2-5.91,2.74V43.63H80.44Z"></path><path d="M112.72,41.15a9.94,9.94,0,0,1-7.6,3.08c-3.82,0-8.34-2.59-8.34-7.95,0-5.61,4.52-7.65,8.34-7.65,3.18,0,6,1,7.6,2.93V28.23c0-2.43-2.08-4-5.26-4a10.07,10.07,0,0,0-7,2.83l-2.39-4.22A15.76,15.76,0,0,1,108.55,19C114,19,119,21.23,119,28.13v15.5h-6.31Zm0-6.26a6.31,6.31,0,0,0-5.06-2.09c-2.49,0-4.52,1.29-4.52,3.63s2,3.52,4.52,3.52a6.3,6.3,0,0,0,5.06-2.08Z"></path><path d="M125.29,10.5h6.31V22.72A9.26,9.26,0,0,1,139,19c6.11,0,10.63,4.77,10.63,12.62S145.06,44.23,139,44.23a9.33,9.33,0,0,1-7.4-3.68v3.08h-6.31ZM137,38.61c3.68,0,6.11-2.78,6.11-6.95s-2.43-7-6.11-7a7,7,0,0,0-5.41,2.78v8.49A7,7,0,0,0,137,38.61Z"></path><path d="M152.86,31.61c0-6.8,4.77-12.57,12.66-12.57s12.72,5.77,12.72,12.57-4.77,12.62-12.72,12.62S152.86,38.46,152.86,31.61Zm18.82,0c0-3.72-2.23-6.95-6.16-6.95s-6.1,3.23-6.1,7,2.18,7,6.1,7S171.68,35.39,171.68,31.61Z"></path><path d="M184.15,37.67V25.15h-4V19.64h4V13.08h6.36v6.56h4.87v5.51h-4.87V36c0,1.49.79,2.63,2.18,2.63a3.44,3.44,0,0,0,2.19-.69l1.34,4.77c-.94.84-2.63,1.54-5.26,1.54C186.54,44.23,184.15,41.94,184.15,37.67Z"></path><path d="M202.93,36.13a4,4,0,1,1-4,4A4.07,4.07,0,0,1,202.93,36.13Z"></path><path class="cls-1" d="M222.55,19c4.92,0,7.9,2.14,9.49,4.33l-4.13,3.87a5.81,5.81,0,0,0-5.06-2.58c-3.83,0-6.51,2.78-6.51,7s2.68,7,6.51,7A6,6,0,0,0,227.91,36L232,39.86c-1.59,2.23-4.57,4.37-9.49,4.37-7.4,0-12.72-5.22-12.72-12.62S215.15,19,222.55,19Z"></path><path class="cls-1" d="M252.4,29c0-3.33-1.74-4.37-4.47-4.37a7,7,0,0,0-5.46,2.83V43.63h-6.31V10.5h6.31V22.77A11.09,11.09,0,0,1,250.91,19c5.27,0,7.8,2.89,7.8,7.55v17H252.4Z"></path><path class="cls-1" d="M279.37,41.15a10,10,0,0,1-7.6,3.08c-3.82,0-8.34-2.59-8.34-7.95,0-5.61,4.52-7.65,8.34-7.65,3.18,0,6,1,7.6,2.93V28.23c0-2.43-2.08-4-5.26-4a10.11,10.11,0,0,0-7,2.83l-2.38-4.22A15.76,15.76,0,0,1,275.2,19c5.46,0,10.48,2.19,10.48,9.09v15.5h-6.31Zm0-6.26a6.31,6.31,0,0,0-5.06-2.09c-2.49,0-4.52,1.29-4.52,3.63s2,3.52,4.52,3.52a6.3,6.3,0,0,0,5.06-2.08Z"></path><path class="cls-1" d="M291.94,19.64h6.31v3.28a10.26,10.26,0,0,1,7.65-3.83v6.16a8,8,0,0,0-1.74-.2c-2.09,0-4.87,1.2-5.91,2.74V43.63h-6.31Z"></path><path class="cls-1" d="M312.16,45.22a9.51,9.51,0,0,0,7.5,3c3,0,6.6-1.34,6.6-6.06V39.71a9.35,9.35,0,0,1-7.4,3.77c-6,0-10.58-4.22-10.58-12.22,0-7.84,4.52-12.22,10.58-12.22a9.26,9.26,0,0,1,7.4,3.68V19.64h6.36V42c0,9.14-7.05,11.38-13,11.38a14.56,14.56,0,0,1-10.34-3.58Zm14.1-17.83a6.83,6.83,0,0,0-5.41-2.73c-3.58,0-6.06,2.48-6.06,6.6s2.48,6.61,6.06,6.61a7,7,0,0,0,5.41-2.73Z"></path><path class="cls-1" d="M349.76,19c7.15,0,12,5.37,12,13.22v1.39H344c.39,3,2.83,5.56,6.9,5.56a9.83,9.83,0,0,0,6.41-2.38L360,40.9c-2.39,2.18-6.16,3.33-9.89,3.33-7.3,0-12.81-4.92-12.81-12.62A12.21,12.21,0,0,1,349.76,19Zm-5.91,10.34h11.82a5.56,5.56,0,0,0-5.91-5.32A5.75,5.75,0,0,0,343.85,29.38Z"></path><path d="M34.46,16.64A3.88,3.88,0,0,1,31.72,10L40.6,1.14a3.87,3.87,0,1,1,5.48,5.48L37.2,15.5A3.86,3.86,0,0,1,34.46,16.64Z"></path><path d="M43.68,25.86a3.88,3.88,0,0,1-2.74-6.62l8.88-8.88a3.88,3.88,0,0,1,5.49,5.48l-8.88,8.89A3.9,3.9,0,0,1,43.68,25.86Z"></path><path d="M12.61,43.9l0,0a16.54,16.54,0,0,1,0-23.36L23.17,9.91a3.87,3.87,0,0,0-5.48-5.48L7.1,15a24.29,24.29,0,0,0,0,34.33l0,0Z"></path><path class="cls-1" d="M52,33.27a3.88,3.88,0,0,0-5.48,0L35.94,43.86a16.51,16.51,0,0,1-23.32,0h0L7.13,49.38h0a24.29,24.29,0,0,0,34.29,0L52,38.75A3.86,3.86,0,0,0,52,33.27Z"></path></g></g></svg>